<svg xmlns="http://www.w3.org/2000/svg" width="1600" height="1100" viewBox="0 0 1600 1100" fill="none">
  <defs>
    <linearGradient id="bg" x1="160" y1="120" x2="1390" y2="1020" gradientUnits="userSpaceOnUse">
      <stop stop-color="#F8FBFF"/>
      <stop offset="0.4" stop-color="#DDEAF7"/>
      <stop offset="1" stop-color="#C7DDF1"/>
    </linearGradient>
    <linearGradient id="card" x1="198" y1="162" x2="1324" y2="872" gradientUnits="userSpaceOnUse">
      <stop stop-color="white" stop-opacity="0.88"/>
      <stop offset="1" stop-color="white" stop-opacity="0.3"/>
    </linearGradient>
    <radialGradient id="glowA" cx="0" cy="0" r="1" gradientUnits="userSpaceOnUse" gradientTransform="translate(1348 202) rotate(117.573) scale(338.79 426.169)">
      <stop stop-color="#C6DFFF"/>
      <stop offset="1" stop-color="#C6DFFF" stop-opacity="0"/>
    </radialGradient>
    <radialGradient id="glowB" cx="0" cy="0" r="1" gradientUnits="userSpaceOnUse" gradientTransform="translate(332 944) rotate(-17.9092) scale(373.942 296.57)">
      <stop stop-color="#EEDBFF"/>
      <stop offset="1" stop-color="#EEDBFF" stop-opacity="0"/>
    </radialGradient>
    <filter id="blur" x="0" y="0" width="1600" height="1100" filterUnits="userSpaceOnUse" color-interpolation-filters="sRGB">
      <feGaussianBlur stdDeviation="42"/>
    </filter>
  </defs>

  <rect width="1600" height="1100" rx="56" fill="url(#bg)"/>
  <g filter="url(#blur)">
    <circle cx="1348" cy="202" r="170" fill="url(#glowA)"/>
    <circle cx="320" cy="920" r="186" fill="url(#glowB)"/>
  </g>

  <rect x="96" y="84" width="1408" height="932" rx="52" fill="url(#card)" stroke="white" stroke-opacity="0.55" stroke-width="2"/>
  <rect x="144" y="132" width="664" height="836" rx="42" fill="white" fill-opacity="0.36" stroke="white" stroke-opacity="0.52" stroke-width="2"/>
  <rect x="850" y="160" width="602" height="782" rx="42" fill="#F7FBFF" fill-opacity="0.32" stroke="white" stroke-opacity="0.48" stroke-width="2"/>

  <g opacity="0.95">
    <path d="M964 214C1028 174 1117 163 1216 182C1321 202 1387 262 1404 340C1422 425 1389 494 1318 546C1265 585 1207 611 1148 649C1115 669 1080 697 1048 736C1009 784 983 836 968 890H912C930 806 962 735 1016 680C1060 636 1101 607 1146 582C1205 548 1263 521 1309 476C1360 426 1383 370 1370 316C1357 263 1314 225 1248 208C1172 188 1104 194 1044 226L964 214Z" fill="#DAE8F7"/>
    <path d="M1113 219C1073 271 1057 324 1063 374C1071 436 1110 467 1186 486C1271 508 1304 550 1283 610C1266 659 1221 703 1145 744L1178 783C1267 733 1325 670 1346 594C1374 493 1312 426 1215 397C1158 380 1133 358 1129 317C1127 286 1138 252 1164 219H1113Z" fill="#8AAED2" fill-opacity="0.66"/>
    <circle cx="1192" cy="352" r="76" fill="white" fill-opacity="0.46"/>
    <circle cx="1268" cy="564" r="108" fill="white" fill-opacity="0.26"/>
  </g>

  <g opacity="0.92">
    <path d="M355 228C416 176 495 152 573 161C653 170 724 208 772 274C736 283 704 299 672 324C640 351 612 387 596 431C584 466 580 511 583 565C588 646 584 717 565 772C545 832 506 882 454 918H312C377 884 426 833 450 767C470 713 475 648 470 575C464 493 473 421 502 356C530 292 575 249 638 219C589 207 536 211 489 229C441 247 401 277 367 317L355 228Z" fill="#E7DFF9"/>
    <path d="M299 338C335 294 382 263 440 246C401 294 381 355 381 430C381 487 389 547 403 608C416 666 418 723 406 781C392 847 360 893 309 920H228C286 877 320 819 331 744C339 691 336 633 321 569C305 499 300 435 307 379L299 338Z" fill="#C09AE8" fill-opacity="0.54"/>
    <circle cx="534" cy="334" r="88" fill="white" fill-opacity="0.44"/>
    <circle cx="395" cy="622" r="96" fill="white" fill-opacity="0.24"/>
  </g>

  <g opacity="0.76">
    <rect x="214" y="762" width="370" height="136" rx="32" fill="white" fill-opacity="0.66"/>
    <rect x="904" y="796" width="404" height="112" rx="32" fill="white" fill-opacity="0.5"/>
    <rect x="1260" y="826" width="130" height="24" rx="12" fill="#96B7D6" fill-opacity="0.58"/>
    <rect x="936" y="826" width="154" height="24" rx="12" fill="#96B7D6" fill-opacity="0.46"/>
    <rect x="240" y="796" width="160" height="26" rx="13" fill="#9FB1CE" fill-opacity="0.58"/>
    <rect x="240" y="840" width="276" height="18" rx="9" fill="#9FB1CE" fill-opacity="0.36"/>
  </g>
</svg>
