<svg xmlns="http://www.w3.org/2000/svg" width="420" height="190" viewBox="0 0 420 190" fill="none">
  <g filter="url(#shadow)">
    <rect x="18" y="22" width="340" height="112" rx="28" fill="#DDD2F8"/>
    <rect x="28" y="30" width="340" height="112" rx="28" fill="#F8F4FF"/>
  </g>

  <g transform="translate(54 56)">
    <polygon points="36,0 8,48 36,34 64,48" fill="#8B8E92"/>
    <polygon points="36,0 36,34 64,48" fill="#2F3133"/>
    <polygon points="36,54 8,48 36,78 64,48" fill="#616468"/>
    <polygon points="36,54 36,78 64,48" fill="#222426"/>
  </g>

  <g transform="translate(186 48)">
    <rect x="0" y="8" width="66" height="12" fill="#2BB3A8"/>
    <rect x="26" y="20" width="14" height="44" fill="#2BB3A8"/>
    <rect x="-8" y="34" width="82" height="10" fill="#2BB3A8"/>
    <ellipse cx="33" cy="40" rx="42" ry="10" stroke="#2BB3A8" stroke-width="8" fill="none"/>
  </g>

  <g fill="#4A415E">
    <rect x="126" y="82" width="28" height="10"/>
    <rect x="266" y="82" width="28" height="10"/>
    <rect x="154" y="86" width="24" height="6"/>
    <rect x="242" y="86" width="24" height="6"/>
  </g>

  <defs>
    <filter id="shadow" x="0" y="0" width="420" height="190" filterUnits="userSpaceOnUse" color-interpolation-filters="sRGB">
      <feDropShadow dx="10" dy="10" stdDeviation="8" flood-color="#000000" flood-opacity="0.16"/>
    </filter>
  </defs>
</svg>
